<?xml version="1.0" encoding="utf-8"?>
<!-- Generator: Adobe Illustrator 27.0.0, SVG Export Plug-In . SVG Version: 6.00 Build 0)  -->
<svg version="1.1" id="freepik_stories-developer-activity" xmlns:svgjs="http://svgjs.com/svgjs"
	 xmlns="http://www.w3.org/2000/svg" xmlns:xlink="http://www.w3.org/1999/xlink" x="0px" y="0px" viewBox="0 0 500 500"
	 style="enable-background:new 0 0 500 500;" xml:space="preserve">
<style type="text/css">
	.st0{fill:#92E3A9;}
	.st1{opacity:0.9;enable-background:new    ;}
	.st2{opacity:0.7;fill:#A39CFF;enable-background:new    ;}
	.st3{fill:none;stroke:#263238;stroke-width:1.1031;stroke-linecap:round;stroke-linejoin:round;stroke-dasharray:4.4124;}
	.st4{opacity:0.5;fill:#A39CFF;enable-background:new    ;}
	.st5{fill:#FFFFFF;stroke:#263238;stroke-width:1.1031;stroke-linecap:round;stroke-linejoin:round;}
	.st6{fill:#263238;}
	.st7{opacity:0.2;fill:#FFFFFF;enable-background:new    ;}
	.st8{fill:#7E62FE;stroke:#263238;stroke-width:1.1031;stroke-miterlimit:10;}
	.st9{fill:none;stroke:#263238;stroke-width:1.1031;stroke-miterlimit:10;}
	.st10{fill:#453E9B;stroke:#263238;stroke-width:1.1031;stroke-miterlimit:10;}
	.st11{fill:#7E62FE;}
	.st12{fill:#FFFFFF;stroke:#222221;stroke-width:1.1031;stroke-miterlimit:10;}
	.st13{fill:none;stroke:#263238;stroke-width:1.1031;stroke-linecap:round;stroke-linejoin:round;}
	.st14{fill:#FFFFFF;}
	.st15{opacity:0.5;fill:#FFFFFF;enable-background:new    ;}
	.st16{opacity:0.2;enable-background:new    ;}
	.st17{fill:none;stroke:#263238;stroke-width:2.2062;stroke-linecap:round;stroke-linejoin:round;}
	
		.st18{opacity:0.2;fill:none;stroke:#FFFFFF;stroke-width:1.1031;stroke-linecap:round;stroke-linejoin:round;enable-background:new    ;}
	.st19{fill:none;stroke:#FFFFFF;stroke-width:1.1031;stroke-linecap:round;stroke-linejoin:round;}
</style>
<g id="freepik--background-simple--inject-2">
	<path id="elukzjl1ur20t" class="st0" d="M456.5,209.1c-48.7-83.5-181-53.8-207.9-94.3c-13.8-20.8-29.3-44.9-51.7-57.4
		c-21.4-12-46.2-16.2-67.8-14.6c-77.2,5.7-109.9,74.7-95.1,150.6C53.7,294.5,143.4,397.9,250,398.6c55.7,0.4,109-19.6,150.7-47.7
		l0.9-0.6C443.3,321.9,493.8,272.8,456.5,209.1z"/>
	<g id="el3g5j1pkgbwl" class="st1">
		<path class="st2" d="M456.5,209.1c-48.7-83.5-181-53.8-207.9-94.3c-13.8-20.8-29.3-44.9-51.7-57.4c-21.4-12-46.2-16.2-67.8-14.6
			c-77.2,5.7-109.9,74.7-95.1,150.6C53.7,294.5,143.4,397.9,250,398.6c55.7,0.4,109-19.6,150.7-47.7l0.9-0.6
			C443.3,321.9,493.8,272.8,456.5,209.1z"/>
	</g>
</g>
<g id="freepik--Lines--inject-2">
	<path id="elfkb05gkrcb" class="st3" d="M78.2,215.2h-5.4c-12.1,0-21.9,9.8-21.9,21.9v120.3c0,12.1,9.8,21.9,21.9,21.9h74.4
		c12.1,0,21.9-9.8,21.9-21.9l0,0"/>
	<path id="ellqp4vkqb3b" class="st3" d="M163,101.6V77.9c0-7.4,6-13.4,13.4-13.4h96.7c7.4,0,13.4,6,13.4,13.4l0,0"/>
</g>
<g id="freepik--Shadow--inject-2">
	<ellipse id="elq79s9nw8vjk" class="st0" cx="250" cy="445.4" rx="191.5" ry="26.8"/>
	<g id="el5x6xfrkqj63" class="st1">
		<ellipse class="st4" cx="250" cy="445.4" rx="191.5" ry="26.8"/>
	</g>
</g>
<g id="freepik--Window--inject-2">
	<path id="elz70yj51d63g" class="st5" d="M430.5,133.5v180.1c0,12.3-9.9,22.2-22.2,22.2H91.7c-12.3,0-22.2-9.9-22.2-22.2V133.5
		c0-0.5,0-1,0.1-1.6c0.8-11.6,10.5-20.6,22.1-20.6h316.7c11.7,0,21.3,9,22.1,20.7C430.5,132.5,430.5,133,430.5,133.5z"/>
	<path id="ela37emkbt5xh" class="st6" d="M80.3,140.3h340.6l0,0v166.3c0,11.5-9.3,20.8-20.8,20.8h-299c-11.5,0-20.8-9.3-20.8-20.8
		L80.3,140.3L80.3,140.3L80.3,140.3z"/>
	<g id="elwiu5imm19p">
		<path class="st7" d="M420.9,140.3v166.3c0.1,11.4-9.1,20.7-20.6,20.8H100.8c-11.4-0.1-20.6-9.4-20.6-20.8V140.3H420.9z"/>
	</g>
	<path id="el9z9uqngyapo" class="st8" d="M430.5,132H69.5c0.8-11.6,10.5-20.6,22.1-20.6h316.7C420,111.4,429.7,120.4,430.5,132z"/>
	<path id="elttncoacporc" class="st6" d="M113.9,121.6c0,2.2-1.8,3.9-3.9,3.9s-3.9-1.8-3.9-3.9s1.8-3.9,3.9-3.9
		S113.9,119.5,113.9,121.6L113.9,121.6z"/>
	<path id="elzu9hwe5scef" class="st6" d="M130.5,121.6c0,2.2-1.8,3.9-3.9,3.9s-3.9-1.8-3.9-3.9s1.8-3.9,3.9-3.9
		S130.5,119.5,130.5,121.6L130.5,121.6z"/>
	<circle id="eljz5v5dvqvlg" class="st6" cx="143.2" cy="121.6" r="3.9"/>
	<path id="eldd1ds97g5d" class="st9" d="M420.9,140.3v166.3c0,11.5-9.3,20.8-20.8,20.8h-299c-9.9,0-18.5-7-20.4-16.8v-0.1
		c-0.3-1.3-0.4-2.7-0.4-4V140.3H420.9z"/>
	<path id="elwk13msck9z" class="st6" d="M420.5,166c-1.5-0.8-3-1.5-4.6-1.9l-1.9-8.4h-7.9l-1.9,8.4c-1.6,0.4-3.2,1.1-4.6,1.9
		l-7.2-4.6l-5.6,5.6l4.5,7.2c-0.8,1.5-1.5,3-1.9,4.6l-8.4,1.9v7.9l8.4,1.9c0.4,1.6,1.1,3.2,1.9,4.7l-4.6,7.2l5.6,5.6l7.2-4.6
		c1.5,0.8,3,1.5,4.6,1.9l1.9,8.3h7.9l1.9-8.3c1.6-0.5,3.2-1.1,4.6-1.9l0.4,0.2v-37.8L420.5,166z M410.1,195
		c-5.7,0-10.3-4.6-10.3-10.3s4.6-10.3,10.3-10.3c5.7,0,10.3,4.6,10.3,10.3c0,0,0,0,0,0C420.4,190.4,415.8,195,410.1,195
		C410.1,195,410.1,195,410.1,195z"/>
	<path id="elmn5hr237uz" class="st6" d="M277.5,174.1v-16.7l-17.6-3.9c-0.9-3.4-2.3-6.7-4-9.8l2.1-3.4h-83.1l2.1,3.3
		c-1.7,3.1-3.1,6.4-4,9.8l-17.6,3.9V174l17.6,3.9c0.9,3.4,2.3,6.7,4,9.8l-9.7,15.2l11.9,11.8l15.2-9.7c3.1,1.7,6.4,3.1,9.8,4.1
		l3.9,17.6h16.7l3.9-17.6c3.4-1,6.7-2.3,9.7-4.1l15.2,9.7l11.8-11.8l-9.6-15.2c1.7-3.1,3-6.4,4-9.8L277.5,174.1z M216.5,187.3
		c-11.9,0-21.6-9.7-21.6-21.6s9.7-21.6,21.6-21.6c11.9,0,21.6,9.7,21.6,21.6C238.1,177.6,228.4,187.3,216.5,187.3
		C216.5,187.3,216.5,187.3,216.5,187.3L216.5,187.3z"/>
	<path id="el9lcsf1btio5" class="st6" d="M166.4,289l0.7-13.3l-13.8-3.9c-0.6-2.7-1.6-5.4-2.8-7.9l8.3-11.7l-8.9-9.9l-12.5,7
		c-2.4-1.5-4.9-2.7-7.6-3.6l-2.4-14.1l-13.3-0.6l-3.8,13.8c-2.7,0.6-5.4,1.6-7.9,2.8l-11.7-8.3l-9.9,8.9l7.1,12.5
		c-1.5,2.4-2.7,4.9-3.6,7.6l-4,0.7v18l2.9,0.8c0.6,2.7,1.5,5.4,2.8,7.9l-5.7,8l0.4,6.9v0.1l5.9,6.6l12.5-7c2.4,1.5,4.9,2.8,7.6,3.7
		l2.3,13.6l0,0l0.1,0.6l13.3,0.7l0.3-1.3l0,0l3.5-12.5c2.7-0.6,5.4-1.6,7.9-2.8l11.6,8.3l9.9-8.9l-7-12.5c1.5-2.4,2.7-4.9,3.6-7.6
		L166.4,289z M131.1,268.2c-6.4-7.1-17.2-7.6-24.3-1.3c-7.1,6.4-7.6,17.2-1.3,24.3c6.4,7.1,17.2,7.6,24.3,1.3c0,0,0,0,0,0
		C136.9,286.2,137.4,275.3,131.1,268.2L131.1,268.2z"/>
	<path id="eligrjzil0cp" class="st6" d="M272.6,269.2c0.5-2.1,0.8-4.2,0.8-6.3l9.5-5l-2.6-9.7l-10.8,0.5c-1.1-1.8-2.4-3.5-3.9-5
		l3.2-10.3l-8.7-5l-7.3,7.9c-2.1-0.5-4.2-0.8-6.3-0.8l-5-9.6l-9.7,2.6l0.5,10.8c-1.8,1.1-3.5,2.4-5,3.9l-10.3-3.2l-5,8.7l8,7.3
		c-0.5,2.1-0.8,4.2-0.8,6.3l-9.6,5l2.6,9.7l10.8-0.5c1.1,1.8,2.4,3.5,3.9,5l-3.2,10.3l8.7,5l7.2-7.9c2.1,0.5,4.2,0.8,6.3,0.8l5,9.6
		l9.7-2.6l-0.4-9.2l-0.1-1.6c1.8-1.1,3.5-2.4,5.1-3.9l10.3,3.2l4.3-7.4l0.7-1.3L272.6,269.2z M249.7,275.1c-6.9,1.9-14.1-2.2-16-9.1
		c-1.9-6.9,2.2-14.1,9.1-16c6.9-1.9,14.1,2.2,16,9.1c0,0,0,0.1,0,0.1C260.7,266.1,256.6,273.2,249.7,275.1L249.7,275.1z"/>
	<path id="elsymbfoa3ge" class="st6" d="M383.3,286.2l2.2-13.3l-13.5-5.4c-0.3-2.8-1-5.6-1.9-8.3l9.7-10.8l-7.8-11l-13.4,5.7
		c-2.2-1.8-4.6-3.3-7.2-4.5l-0.8-14.5l-13.3-2.2l-5.5,13.4c-2.8,0.3-5.6,1-8.3,1.9l-10.8-9.7l-11,7.8l5.7,13.4c-1.6,2-2.9,4.1-4,6.3
		c-0.1,0.3-0.3,0.6-0.5,0.9l-14.5,0.8l-2.2,13.3l2.2,0.9l11.3,4.5c0.3,2.8,1,5.6,1.9,8.3l-9.7,10.9l7.9,11l13.4-5.7
		c2.2,1.8,4.6,3.3,7.2,4.5l0.8,14.4l13.3,2.2l5.4-13.3c2.8-0.3,5.6-1,8.3-1.9l10.8,9.7l11-7.9l-5.7-13.4c1.8-2.2,3.3-4.7,4.5-7.2
		L383.3,286.2z M346,285.6c-7.8,5.6-18.7,3.8-24.3-4c-5.6-7.8-3.8-18.7,4-24.3c7.8-5.6,18.7-3.8,24.3,4c0,0,0,0,0,0
		C355.6,269.2,353.8,280,346,285.6L346,285.6z"/>
</g>
<g id="freepik--Graphics--inject-2">
	<path id="el6zedkrmhg3c" class="st10" d="M98.5,187.8h104.6c7.2,0,13.1,5.9,13.1,13.1v144.8c0,7.2-5.9,13.1-13.1,13.1H98.5
		c-7.2,0-13.1-5.9-13.1-13.1V200.9C85.4,193.6,91.3,187.8,98.5,187.8z"/>
	<path id="elvqqcxhl7hqr" class="st5" d="M228.4,213.8v144.8c0,7.2-5.9,13.1-13.1,13.1c0,0,0,0,0,0H110.7c-7.2,0-13.1-5.9-13.1-13.1
		l0,0V213.8c0-7.2,5.9-13.1,13.1-13.1h104.6C222.5,200.7,228.4,206.6,228.4,213.8L228.4,213.8z"/>
	<path id="elwfd3rsg0a3" class="st8" d="M228.4,213.8v7.8H97.6v-7.8c0-7.2,5.9-13.1,13.1-13.1h104.6
		C222.5,200.7,228.4,206.6,228.4,213.8L228.4,213.8z"/>
	<rect id="el2q61b66z0fw" x="109.9" y="230.5" class="st11" width="32.2" height="5.4"/>
	<rect id="elibt05em3ooj" x="109.9" y="278.9" class="st11" width="32.2" height="5.4"/>
	<rect id="eljex6nl1t69k" x="109.9" y="322.8" class="st11" width="32.2" height="5.4"/>
	<rect id="elp9oqnuknfkp" x="109.9" y="243.9" class="st6" width="91.4" height="4"/>
	<rect id="eltza579c9n6" x="109.9" y="251.5" class="st6" width="74.9" height="3.9"/>
	<rect id="el8z4u05lkwr4" x="109.9" y="258.9" class="st6" width="84.7" height="3.9"/>
	<rect id="el7qmrghq1l" x="109.9" y="266.4" class="st6" width="84.7" height="3.9"/>
	<rect id="el1r64jhhfami" x="109.9" y="287.8" class="st6" width="91.4" height="4"/>
	<rect id="elg9gdfkxtmtm" x="109.9" y="295.4" class="st6" width="74.9" height="3.9"/>
	<rect id="elsbetg1cf8l" x="109.9" y="302.8" class="st6" width="84.7" height="3.9"/>
	<rect id="elx3y9rusvfbd" x="109.9" y="336" class="st6" width="91.4" height="4"/>
	<rect id="el3r6suqf8mzs" x="109.9" y="343.5" class="st6" width="74.9" height="3.9"/>
	<rect id="elte6w0i3803" x="109.9" y="351" class="st6" width="84.7" height="3.9"/>
	<path id="elmijmois6qxq" class="st12" d="M375.8,100.3v58.5c0,8.6-7,15.6-15.6,15.6c0,0,0,0,0,0H225.4c-8.6,0-15.6-7-15.6-15.6
		c0,0,0,0,0,0v-58.5c0-8.6,7-15.6,15.6-15.6h134.8C368.8,84.7,375.8,91.7,375.8,100.3z"/>
	<path id="ely35jva2wolj" class="st8" d="M375.8,100.3v1.3H209.7v-1.3c0-8.6,7-15.6,15.6-15.6h134.8
		C368.8,84.7,375.8,91.7,375.8,100.3z"/>
	<path id="eli0kmlo3eczp" class="st6" d="M234.1,95.9c-0.9,0.9-2.5,0.9-3.4,0c-0.9-0.9-0.9-2.5,0-3.4s2.5-0.9,3.4,0c0,0,0,0,0,0
		C235,93.5,235,95,234.1,95.9z"/>
	<path id="elyg2j5fuv9cs" class="st6" d="M245.2,95.9c-0.9,0.9-2.5,0.9-3.4,0c-0.9-0.9-0.9-2.5,0-3.4s2.5-0.9,3.4,0c0,0,0,0,0,0
		C246.2,93.5,246.2,95,245.2,95.9z"/>
	<path id="ellqnfeq9ytse" class="st6" d="M256.4,95.9c-0.9,0.9-2.5,0.9-3.4,0c-0.9-0.9-0.9-2.5,0-3.4s2.5-0.9,3.4,0c0,0,0,0,0,0
		C257.3,93.5,257.3,95,256.4,95.9z"/>
	<rect id="el29nngivk4pf" x="220.3" y="112.4" class="st3" width="54.3" height="46.9"/>
	<rect id="el6t8475u2jpo" x="283" y="112.4" class="st6" width="62.5" height="3.3"/>
	<rect id="elr58xg3mr6p" x="283" y="119.2" class="st6" width="47.9" height="3.3"/>
	<rect id="el7e4s62g0ueb" x="283" y="126" class="st6" width="71.4" height="3.3"/>
	<rect id="el51djoun4tjw" x="283" y="132.6" class="st6" width="60.8" height="3.3"/>
	<path id="elc96vya18gmf" class="st5" d="M349.8,245.5h30.6c3.6,0,6.5,2.9,6.5,6.5V270c0,3.6-2.9,6.5-6.5,6.5h-30.6
		c-3.6,0-6.5-2.9-6.5-6.5v-17.9C343.2,248.5,346.2,245.5,349.8,245.5z"/>
	<polyline id="el9s37hwiovld" class="st13" points="357.3,254.9 348.9,260.1 356.7,267 	"/>
	<polyline id="elm1hqs5lc9l" class="st13" points="372.6,267.5 380.1,261.1 371.4,255.4 	"/>
	<line id="elk8nw6ci5aj" class="st13" x1="361.4" y1="271.5" x2="367.6" y2="252.1"/>
</g>
<g id="freepik--Character--inject-2">
	<path id="elh2wpwuuyoxn" class="st11" d="M296.9,440.5c0,0-29,8.3-33,9.8c-3.7,1.3-13.7,4.8-21.1,3.7c-0.7-0.1-1.4-0.3-2.1-0.5
		c-7.6-2.3-11-4.4-12-9.1s2.8-8.3,6.4-10.5s23.4-4.6,23.4-4.6l4.8,1.4l0,0L296.9,440.5z"/>
	<path id="elpyt4p4xrnk" class="st14" d="M242.7,453.9c-0.7-0.1-1.4-0.3-2.1-0.5c-7.6-2.3-11-4.4-12-9.1s2.8-8.3,6.4-10.5
		s23.4-4.6,23.4-4.6l4.8,1.4c-4.3,2-20.4,3.1-23.9,5.1s-5.2,5.8-3.1,11C237.2,449.4,240.1,452,242.7,453.9z"/>
	<path id="ellmk1b1y97am" class="st13" d="M292.5,441.6c0,0-21.8,5.6-30.4,9.2s-25.1,5.2-31-2.2s-0.7-13.9,5.2-15.3
		s17.7-3.7,24.2-2.8"/>
	<path id="elwzt75f45qi" class="st13" d="M243.1,453.5c0,0-11.1-6.1-7.4-14.6c2.7-6.3,17.5-4.9,24.8-8.4"/>
	<path id="el0pi1aj3k1edk" class="st11" d="M385.2,455.3c-0.3,3-1.4,5.8-4.4,7.6c-2,1.2-4.8,1.9-8.9,1.8
		c-10.2-0.1-29.3-7.4-29.3-7.4l-17.9-9.9l9.3-14.7l2.5-4l6.6,1.5c0,0,5.5,3.1,10.9,5.5s18.8,3,23.5,6.8S385.7,450.3,385.2,455.3z"/>
	<path id="el5zuyhddmown" class="st14" d="M385.2,455.3c-0.3,3-1.4,5.8-4.4,7.6c0.9-2.9,0.7-6.1-0.5-8.9c-2-4.5-8.5-8.5-17.1-9.1
		s-15.1-4.7-18.5-6.5c-2.7-1.4-8.3-4.4-10.7-5.7l2.5-4l6.6,1.5c0,0,5.5,3.1,10.9,5.5s18.8,3,23.5,6.8S385.7,450.3,385.2,455.3z"/>
	<path id="elxm8aktw4qbq" class="st13" d="M328.7,450.2c12.9,7.5,27.1,12.4,41.9,14.3c3.3,0.4,7,0.5,9.2-2c1.2-1.4,1.7-3.3,1.5-5.1
		c-0.4-4.6-4.3-8.2-8.5-10.1s-8.9-2.2-13.4-3.3c-4.5-1-8.8-2.6-12.9-4.7c-3.2-1.7-6.4-3.7-9.9-4.5s-7.8,0.2-9.7,3.3"/>
	<path id="el8jk5yppi6t3" class="st13" d="M378.6,463.7c3.4-1.6,5.8-4.8,6.5-8.5c0.6-4.3-1.8-8.7-5.3-11.4s-7.8-3.9-12.1-4.8
		s-8.7-1.5-12.8-3.1c-6.3-2.5-12.5-7.3-19-5.6"/>
	<path id="elmibuyzu2kni" class="st11" d="M348.9,295.3l-30.3-11.5l-0.4-0.1c0,0,0.1-0.8,0.2-2c0.2-2.4,0.3-6.4-0.9-7.7
		c-1.7-2-6.5-0.3-11.1-2.5s-13.3,1.7-13.3,1.7s-6.2-1.1-9,3.4c-1.4,3.6-0.9,9-0.9,9l-0.6,0.2c-3.6,1.4-23.2,8.7-27.4,11.7
		c-4.6,3.2-9.7,36.6-11.3,46.4s-4.5,18.6-3.1,22s22.6,19.6,34.7,23.8s55.2,3,55.2,3s0.7-0.2,2-0.6c7.3-2.3,33.1-12,46.8-34.7
		C379.6,357.4,366.3,313.9,348.9,295.3z M267.1,351.4c-2.2,1.6-1,7.7-1,7.7l-3.8-3.3l9.5-23.4l4.1,18
		C275.9,350.3,269.3,349.8,267.1,351.4z M343.2,366.3c-1,0.5,3-10.7,1.1-13.3s-7.7-2.3-7.7-2.3l0.5-3.1l3.4-17.6l1.1-1.4
		c0,0,11.8,20.2,13.9,27.3C355.5,356,342.7,366.3,343.2,366.3z"/>
	<path id="el573l169be1d" class="st14" d="M291.7,222.2l-15.6,16.6c0,0-2.1,1.9-1.3,6.7s2.9,9,4.4,9.3c1.2,0.2,2.4,0.3,3.6,0.3
		c0,0,3.4,7.3,5.7,10.1c0,0,0.8,11.2,0.4,14.3c0,0,5.6,4.9,10.9,5.5s13.5-7.5,13.5-7.5l2-9.9c0,0,4.8-7.3,5.1-9.2s2.5-1.4,3.6-2.4
		s3.6-5.2,4-9.3s0.4-8.7-4.2-7.3c-4.1-1.1-1.5-9.7-1.5-9.7l-7.1-6.3L291.7,222.2z"/>
	<g id="elxcx7az78f8i">
		<path class="st15" d="M318.6,283.7c-0.2,0.6-0.5,1.2-0.8,1.8c-2.6,4.9-13.8,14.1-13.8,14.1l-3.4-10.5l-1.9,10.5
			c-3.8-1.6-15.2-11.5-15.2-11.5s-0.4-0.9-0.9-2.4l0.6-0.2c0,0-0.5-5.4,0.9-9c2.7-4.5,9-3.4,9-3.4s8.6-3.8,13.3-1.7
			s9.5,0.5,11.1,2.5s0.6,9.7,0.6,9.7L318.6,283.7z"/>
	</g>
	<g id="eltzt3lx03yb">
		<path class="st16" d="M348.9,295.3l-30.3-11.5l-0.4-0.1c0,0,0.1-0.8,0.2-2l-0.6,3.9l-4.5,6.1c4.8,1.8,9.5,3.8,14,6.2
			c4.4,2.4,7,7.2,6.4,12.2l-5.6,47.8l-2.3,27.1l6.9,7.2c7.3-2.3,33.1-12,46.8-34.7C379.6,357.4,366.3,313.9,348.9,295.3z
			 M343.2,366.3c-1,0.5,3-10.7,1.1-13.3s-7.7-2.3-7.7-2.3l0.5-3.1l3.4-17.6l1.1-1.4c0,0,11.8,20.2,13.9,27.3
			C355.5,356,342.7,366.3,343.2,366.3z"/>
	</g>
	<g id="ely2h9qkr783">
		<path class="st16" d="M277.9,353l-4.7-15.7c0,0-8.5-28.8-14.2-35.9l1.5,20.3c0,0-5,24.2-9.6,31.4s-5.6,9,0,9s19.2,10.8,19.2,10.8
			l-1-9L277.9,353z M266,359.1l-3.8-3.3l9.5-23.4l4.1,18c0,0-6.5-0.5-8.8,1.1S266,359.1,266,359.1z"/>
	</g>
	<path id="elvwtbeqa0me" class="st13" d="M288.5,265.3c0,0,0.9,8.5,0,12.4"/>
	<path id="el8tccpe8nj7a" class="st13" d="M314.1,276.5c0-2.7,0.3-5.5,0.9-8.1"/>
	<path id="eltmstzgf82rl" class="st13" d="M316.4,228.6c0,0,5.1,6.4,4.9,11.3s-0.6,10.7-0.5,16.3s-9.1,17.5-13.8,18.6
		s-8.8,1.3-11.9-1.7s-6.1-7.2-10-12.6s-3-17.2-3-17.2"/>
	<path id="eltmng7btlzlf" class="st13" d="M304,247.7c-0.3,1.8-0.4,3.6-0.4,5.4c-0.1,1.5,0.4,3,1.3,4.2c0.6,0.6,1.4,1,1.5,1.9
		c0,0.7-0.4,1.4-1.1,1.8c-0.6,0.3-1.3,0.7-1.9,1.1"/>
	<path id="elrryhf5uh3li" class="st13" d="M295.9,262.6c0,0,0.6,3.8,5.7,4.6"/>
	<path id="el2lleewaon57" class="st6" d="M296.4,250.6c0,1.1-0.5,2-1.1,2s-1.1-0.9-1.1-2s0.5-2,1.1-2S296.4,249.5,296.4,250.6z"/>
	<path id="el3vnwpl489mk" class="st6" d="M311.7,251.1c0,1.1-0.5,2-1.1,2s-1.1-0.9-1.1-2s0.5-2,1.1-2S311.7,250,311.7,251.1z"/>
	<path id="el17sm7tm4x0m" class="st17" d="M308.6,246.3c0,0,5-5,9.2,0.6"/>
	<path id="elqttbhsl3f2e" class="st17" d="M298.1,246.4c0,0-3.2-3.5-8.1,0"/>
	<path id="el3u7tyzi73fa" class="st6" d="M288.9,270c0,0,3,8.4,9.9,10.8s15.9-10,15.9-10l-0.5-1.6c0,0-5.9,7.7-12.5,6.4
		s-13.1-10.2-13.1-10.2L288.9,270z"/>
	<path id="eld79736ol45c" class="st13" d="M282.8,254.9c0,0-4.1,1.4-5.1-1.7s-4.8-11.5-1.5-14.3s5.8,3.7,5.8,3.7"/>
	<path id="elgz9mr7baycb" class="st13" d="M320.7,256.6c0,0,3.8,0.8,4.9-2.4s4.8-11.5,1.5-14.3s-5.8,3.7-5.8,3.7"/>
	<path id="el37tljh4gmfk" class="st6" d="M281.9,250.6c1.4-0.2,2.7-1,3.6-2.1c0.5-1,0.9-2.1,1-3.2c0.4-2.1,0.6-4.3,0.6-6.4
		c0-0.8,0-1.7,0.2-2.5c0.3-0.8,0.8-1.6,1.4-2.2c1.4-1.7,3.1-3.1,4.5-4.8c1.5-1.6,2.2-3.8,2-6c6.3,5.2,14.5,7.3,22.5,5.8
		c7.1-1.4,14-7.7,13.2-15.6c-0.3-2.7-2.3-4.9-5-5.5c-3.5-0.9-6.7,1-9.9,2.2c-5.8,2.2-11.5-1.6-17.4-2.2c-5-0.6-11.2,0.1-13.9,5.1
		c0,0-9,1.1-13,8.5s3.6,17.7,3.6,17.7s3-3.7,6.9,3.8L281.9,250.6z"/>
	<path id="elk6be94fx93i" class="st6" d="M317,226.7c0,0-2.3,12.2,3.8,18.1c0,0,1.3-3.7,2.7-4.6c2-4.4,1.6-9.5-1.1-13.5
		C317.9,219.6,317,226.7,317,226.7z"/>
	<g id="eleksep49zmmm">
		<path class="st18" d="M328.1,212.8c-1.1,3.4-3.7,6.1-7,7.3c-8.5,3.5-16.7-0.4-25.2-1.1c-6.9-0.6-14.6,5.6-15.1,12.8"/>
	</g>
	<g id="elqsug7k4a44l">
		<path class="st18" d="M275.6,229.8c0.2-5.7,3.7-10.8,9-13.1"/>
	</g>
	<path id="elp50j64jyckd" class="st13" d="M286.5,276.5c3.7,3.9,8.2,7,13.2,9c0,0,10.1-3,15.3-10"/>
	<g id="el5c276933vms">
		<circle class="st13" cx="293.1" cy="250.6" r="9"/>
	</g>
	<g id="eldmzp38j7n1s">
		<circle class="st13" cx="313.2" cy="250.6" r="9"/>
	</g>
	<path id="elhe6cy66hzfm" class="st13" d="M288.5,273.2c-1.8,0.5-3.4,1.7-4.3,3.4c-1.6,2.8-0.6,11.6-0.6,11.6s8.2,8.1,15.2,11.5
		l2.1-11.6l3.2,11.6c0,0,10.8-7.6,13.8-14.1c0,0,1-7.5,0-10c-0.5-1.4-1.8-2.3-3.2-2.4"/>
	<path id="ellwfn6ekg6" class="st13" d="M275.6,350.7c0,0-3.2-21.5-7.5-30.3"/>
	<path id="eld4flptlu7k4" class="st13" d="M258.9,301.4c2.5,3.5,4.7,7.2,6.6,11.1"/>
	<path id="elyjvd1id6rng" class="st13" d="M343.2,317.4c0.9-3.6,2-7.1,3.5-10.5"/>
	<path id="elw275s82kct" class="st13" d="M336.6,350.7c0,0,2.3-14.7,5.1-26.9"/>
	<path id="ely7x5b926zw" class="st13" d="M340.5,330c2.2-3,5.4-5.1,8.9-6.1"/>
	<path id="elk9qhdiy1npg" class="st13" d="M318.2,283.6c0,0,18.6,7.5,30.7,11.7c0,0,14.8,13.9,30.7,62.1c0,0-14.5,24.5-42.2,32.3"/>
	<path id="el8ruqkcjt1ea" class="st13" d="M342.2,367.1l13.4-11.1c0,0,7.1-5.4,14.4-1.7"/>
	<path id="eli8ht95v48jg" class="st13" d="M341.7,328.7c0,0,11,16.3,13.9,27.3"/>
	<path id="ella054dbiack" class="st13" d="M266.1,359.7l-3.9-3.7c0,0-5.8-1-12.4,3.4"/>
	<path id="elaahxn4r84r" class="st13" d="M262.2,356c0,0,4.9-16,9.6-24.2"/>
	<path id="elvseaufcj4om" class="st13" d="M283.2,285.5c0,0-26.8,10.1-29.4,13s-12.6,59.2-12.9,65.6c-0.2,5.8,20.7,18.7,31,24.1"/>
	<path id="elnjmaecjhye" class="st6" d="M303.3,304.6c0,1-0.8,1.8-1.8,1.8s-1.8-0.8-1.8-1.8s0.8-1.8,1.8-1.8c0,0,0,0,0,0
		C302.5,302.8,303.3,303.6,303.3,304.6C303.3,304.5,303.3,304.6,303.3,304.6z"/>
	<path id="elfzsvwoskow" class="st6" d="M334.3,398.8h-61c-0.8,0-1.4-0.6-1.4-1.4l0,0c0-0.8,0.6-1.4,1.4-1.4h61
		c0.8,0,1.4,0.6,1.4,1.4l0,0C335.8,398.1,335.1,398.8,334.3,398.8z"/>
	<path id="elurqqttyfcol" class="st5" d="M336.5,394l8.2-38.4c0.5-2.2-0.9-4.4-3.1-4.8c-0.3-0.1-0.6-0.1-0.9-0.1h-71.3
		c-2.3,0-4.1,1.8-4.1,4.1c0,0.3,0,0.5,0.1,0.8l7.3,37.1c0.4,1.9,2,3.2,3.9,3.3l55.8,1.3C334.3,397.3,336,395.9,336.5,394z"/>
	<path id="eldt6rb6pudv" class="st6" d="M310.4,372.8c0,3.1-2.6,5.7-5.7,5.7c-3.1,0-5.7-2.6-5.7-5.7c0-3.1,2.6-5.7,5.7-5.7
		C307.9,367.1,310.4,369.7,310.4,372.8C310.4,372.8,310.4,372.8,310.4,372.8z"/>
	<line id="el7fc0ofzb03s" class="st13" x1="321.6" y1="354.3" x2="330.1" y2="354.3"/>
	<line id="ellzkmmfhziq" class="st13" x1="281.2" y1="354.3" x2="313.3" y2="354.3"/>
	<path id="el0t4kb6v53wd" class="st6" d="M336.6,434.8l-6.5,17.1c0,0-16.6-4.2-37.8-8.5c-22.2-4.5-45.4-10.4-57.4-31.5
		c-1.5-2.6-2.4-5.6-1.8-8.5c1.7-7.3,11.2-9.3,17.5-10c3.9-0.4,7.9-0.6,11.8-0.7c2,0,8.6-1.1,10.3,0.1c2.4,1.8,5,3.3,7.7,4.6
		c3.5,1.5,55.4-1.4,55.4-1.4c0.9-2,1.5-4.1,1.6-6.2c8.1-4.1,27-7.6,35-6.1c12.5,2.4,19.8,9.7,18.5,17.4S361.8,429.2,336.6,434.8z"/>
	<path id="elhhhab3wyf7t" class="st19" d="M336.6,434.8c0,0-15.8-4.2-28.6-12.9s-22.9-18.8-40.9-16.7"/>
	<path id="el01v984vvqmvm" class="st19" d="M305,419.8c8.1-2.3,14.1-7.6,20.6-12.7c6.9-5.5,14.3-10.4,22.1-14.5"/>
	<line id="el9ayno89vapn" class="st13" x1="302.1" y1="252.1" x2="304.5" y2="252.1"/>
</g>
</svg>
